<svg width="12" height="7" viewBox="0 0 12 7" fill="none" xmlns="http://www.w3.org/2000/svg">
<path d="M1.07342 1.1015C1.21849 0.956472 1.41523 0.875 1.62036 0.875C1.82549 0.875 2.02222 0.956472 2.16729 1.1015L5.99659 4.9308L9.8259 1.1015C9.9718 0.960582 10.1672 0.882607 10.37 0.88437C10.5729 0.886132 10.7669 0.967491 10.9103 1.11092C11.0538 1.25435 11.1351 1.44838 11.1369 1.65122C11.1387 1.85405 11.0607 2.04946 10.9198 2.19536L6.54353 6.5716C6.39846 6.71663 6.20172 6.7981 5.99659 6.7981C5.79146 6.7981 5.59473 6.71663 5.44966 6.5716L1.07342 2.19536C0.928396 2.05029 0.846924 1.85356 0.846924 1.64843C0.846924 1.4433 0.928396 1.24657 1.07342 1.1015Z" fill="#484848"/>
</svg>
