<svg width="18" height="18" viewBox="0 0 18 18" fill="none" xmlns="http://www.w3.org/2000/svg">
<path d="M9.00002 17.3332C7.86113 17.3332 6.78474 17.1143 5.77085 16.6765C4.75696 16.2393 3.87169 15.6421 3.11502 14.8848C2.3578 14.1282 1.76058 13.2429 1.32335 12.229C0.885576 11.2151 0.666687 10.1387 0.666687 8.99984C0.666687 7.84706 0.885576 6.76734 1.32335 5.76067C1.76058 4.75345 2.3578 3.8715 3.11502 3.11484C3.87169 2.35761 4.75696 1.76011 5.77085 1.32234C6.78474 0.885115 7.86113 0.666504 9.00002 0.666504C10.1528 0.666504 11.2325 0.885115 12.2392 1.32234C13.2464 1.76011 14.1284 2.35761 14.885 3.11484C15.6422 3.8715 16.2395 4.75345 16.6767 5.76067C17.1145 6.76734 17.3334 7.84706 17.3334 8.99984V10.2082C17.3334 11.0276 17.0522 11.7254 16.49 12.3015C15.9272 12.8782 15.2361 13.1665 14.4167 13.1665C13.9167 13.1665 13.4514 13.0554 13.0209 12.8332C12.5903 12.6109 12.2361 12.3193 11.9584 11.9582C11.5834 12.3332 11.1425 12.6284 10.6359 12.844C10.1286 13.059 9.58335 13.1665 9.00002 13.1665C7.84724 13.1665 6.86474 12.7601 6.05252 11.9473C5.23974 11.1351 4.83335 10.1526 4.83335 8.99984C4.83335 7.84706 5.23974 6.86428 6.05252 6.0515C6.86474 5.23928 7.84724 4.83317 9.00002 4.83317C10.1528 4.83317 11.1356 5.23928 11.9484 6.0515C12.7606 6.86428 13.1667 7.84706 13.1667 8.99984V10.2082C13.1667 10.6109 13.2917 10.9268 13.5417 11.1557C13.7917 11.3851 14.0834 11.4998 14.4167 11.4998C14.75 11.4998 15.0417 11.3851 15.2917 11.1557C15.5417 10.9268 15.6667 10.6109 15.6667 10.2082V8.99984C15.6667 7.18039 15.0103 5.61428 13.6975 4.3015C12.3853 2.98928 10.8195 2.33317 9.00002 2.33317C7.18057 2.33317 5.61446 2.98928 4.30169 4.3015C2.98946 5.61428 2.33335 7.18039 2.33335 8.99984C2.33335 10.8193 2.98946 12.3851 4.30169 13.6973C5.61446 15.0101 7.18057 15.6665 9.00002 15.6665H13.1667V17.3332H9.00002ZM9.00002 11.4998C9.69446 11.4998 10.2847 11.2568 10.7709 10.7707C11.257 10.2846 11.5 9.69428 11.5 8.99984C11.5 8.30539 11.257 7.71511 10.7709 7.229C10.2847 6.74289 9.69446 6.49984 9.00002 6.49984C8.30557 6.49984 7.7153 6.74289 7.22919 7.229C6.74307 7.71511 6.50002 8.30539 6.50002 8.99984C6.50002 9.69428 6.74307 10.2846 7.22919 10.7707C7.7153 11.2568 8.30557 11.4998 9.00002 11.4998Z" fill="#898989"/>
</svg>
