<svg width="18" height="18" viewBox="0 0 18 18" fill="none" xmlns="http://www.w3.org/2000/svg">
<path fill-rule="evenodd" clip-rule="evenodd" d="M12.7933 17.4442C11.5933 17.4001 8.19248 16.9301 4.63081 13.3692C1.06998 9.80756 0.600813 6.40756 0.555813 5.20672C0.489146 3.37672 1.89081 1.59922 3.50998 0.905058C3.70496 0.820863 3.91848 0.788808 4.12959 0.812037C4.3407 0.835266 4.54214 0.912982 4.71415 1.03756C6.04748 2.00922 6.96748 3.47922 7.75748 4.63506C7.9313 4.889 8.00562 5.19801 7.96628 5.50322C7.92694 5.80843 7.77668 6.0885 7.54415 6.29006L5.91831 7.49756C5.83976 7.55428 5.78447 7.63758 5.76271 7.73199C5.74095 7.8264 5.75419 7.92551 5.79998 8.01089C6.16831 8.68006 6.82331 9.67672 7.57331 10.4267C8.32415 11.1767 9.36748 11.8751 10.0833 12.2851C10.1731 12.3354 10.2787 12.3495 10.3785 12.3244C10.4783 12.2993 10.5647 12.2369 10.62 12.1501L11.6783 10.5392C11.8729 10.2808 12.1599 10.1076 12.4793 10.056C12.7987 10.0045 13.1256 10.0785 13.3916 10.2626C14.5641 11.0742 15.9325 11.9784 16.9341 13.2609C17.0688 13.4341 17.1545 13.6404 17.1822 13.8581C17.2099 14.0758 17.1786 14.2969 17.0916 14.4984C16.3941 16.1259 14.6291 17.5117 12.7933 17.4442Z" fill="#898989"/>
</svg>
